<?xml version="1.0" encoding="UTF-8" standalone="no"?>
<!-- Created with Inkscape (http://www.inkscape.org/) -->

<svg
   version="1.1"
   id="svg1"
   width="613.81519"
   height="153.57507"
   viewBox="0 0 613.81519 153.57507"
   xmlns="http://www.w3.org/2000/svg"
   xmlns:svg="http://www.w3.org/2000/svg">
  <defs
     id="defs1" />
  <g
     id="g1"
     >
    <g
       id="g5"
       >
      <path
         style="fill:none;stroke:#000000;stroke-width:1.26999;stroke-linecap:round;stroke-dasharray:none;stroke-opacity:1"
         d="M 564,55.607079 C 564,55.607079 565.39182,60 568.39182,60 574,60 580.66193,37 576,37 c -5,0 -5,20 0,20 9,0 13,-7 8,-7 -6,0 -6,10 0,10 4,0 5,-10 10,-10 5,0 4,10 -2,10 -4,0 -1.60765,-13.405101 5,-9 3,2 5,-6.545718 5,0 v 9 c 0,1 -0.40926,-11.048231 4,-11 3.25301,0.03558 1.11309,6.339283 2,9 1,3 3,1 4.72325,-1.495702 C 617.93577,48.955246 622.43252,37 619,37 614,37 614.32505,52.789456 614.6201,55.137043 615.73403,64 614.02074,58.122136 616,54 c 1.21098,-2.028204 3,-3 4,-1 0.82095,1.641891 -0.72398,3.456298 -1.9817,2.792645 C 616.51612,55 616.25581,56.834878 617,58 c 0.63872,1 1,2 4,2 6,0 4.68796,-9.980313 5,-10 0.25615,-0.01616 -0.99979,7.045516 4,7 10.64467,-0.0969 13.122,-7 7,-7 -6,0 -3.70018,12.995403 2,10 12.57298,-6.607014 14,-23 11,-23 -3,0 -3.07461,18.115803 -2,22 1.38331,5 -2.63198,5.104062 -3,4 -1,-3 1.53149,-6 5,-6 8,0 10.36836,-7 6.36836,-7 -5,0 -5.35705,10.300642 -1.36836,10 5,-0.376869 5.55994,-10 9,-10 3,0 1,10 2,10 1.07853,0 -0.68883,-10 2.58965,-10 C 671.56988,50 673,50 674,48"
         id="path4" />
      <circle
         style="fill:#000000;fill-opacity:1;stroke:none;stroke-width:1.2;stroke-linecap:round;stroke-dasharray:none;stroke-opacity:1;paint-order:stroke fill markers"
         id="path5"
         cy="45"
         cx="626"
         r="1" />
    </g>
  </g>
</svg>
